
<svg xmlns="http://www.w3.org/2000/svg" width="180" height="48" viewBox="0 0 180 48" fill="none">
  <path d="M43.2 24C43.2 34.6 34.6 43.2 24 43.2C13.4 43.2 4.8 34.6 4.8 24C4.8 13.4 13.4 4.8 24 4.8C34.6 4.8 43.2 13.4 43.2 24Z" fill="#D81B60" fill-opacity="0.15"/>
  <path d="M38.4 24C38.4 32 32 38.4 24 38.4C16 38.4 9.6 32 9.6 24C9.6 16 16 9.6 24 9.6C32 9.6 38.4 16 38.4 24Z" stroke="#D81B60" stroke-width="2.4"/>
  <path d="M24 12L24.582 13.764L26.4 13.0909L25.672 14.909L27.436 15.4909L25.672 16.0727L26.4 17.8909L24.582 17.2182L24 18.9818L23.418 17.2182L21.6 17.8909L22.328 16.0727L20.564 15.4909L22.328 14.909L21.6 13.0909L23.418 13.764L24 12Z" fill="#D81B60"/>
  <path d="M30.8727 15.7091L31.2182 16.7673L32.4 16.3782L31.9673 17.5673L33.0255 17.9127L31.9673 18.2582L32.4 19.4473L31.2182 19.0582L30.8727 20.1164L30.5273 19.0582L29.3455 19.4473L29.7782 18.2582L28.72 17.9127L29.7782 17.5673L29.3455 16.3782L30.5273 16.7673L30.8727 15.7091Z" fill="#D81B60"/>
  <path d="M17.1273 15.7091L17.4727 16.7673L18.6545 16.3782L18.2218 17.5673L19.28 17.9127L18.2218 18.2582L18.6545 19.4473L17.4727 19.0582L17.1273 20.1164L16.7818 19.0582L15.6 19.4473L16.0327 18.2582L14.9745 17.9127L16.0327 17.5673L15.6 16.3782L16.7818 16.7673L17.1273 15.7091Z" fill="#D81B60"/>
  <path d="M28.8 31.2C28.8 33.8 26.6 36 24 36C21.4 36 19.2 33.8 19.2 31.2C19.2 28.6 24 21.6 24 21.6C24 21.6 28.8 28.6 28.8 31.2Z" fill="#D81B60"/>
  <path d="M48 24H52.836C55.98 24 58.392 25.884 58.392 29.244C58.392 32.496 55.944 34.38 52.872 34.38H48V24ZM52.656 32.604C54.648 32.604 56.076 31.356 56.076 29.244C56.076 27.072 54.612 25.776 52.656 25.776H50.28V32.604H52.656Z" fill="#2D3748"/>
  <path d="M66.7148 34.56C63.2828 34.56 60.6388 32.064 60.6388 29.19C60.6388 26.334 63.2828 23.82 66.7148 23.82C69.9308 23.82 72.2408 26.154 72.3688 29.064H70.1968C70.0328 27.162 68.5788 25.74 66.7148 25.74C64.3688 25.74 62.9148 27.342 62.9148 29.19C62.9148 31.038 64.3688 32.64 66.7148 32.64C68.5428 32.64 69.9308 31.272 70.1968 29.424H72.3688C72.1388 32.316 69.9128 34.56 66.7148 34.56Z" fill="#2D3748"/>
  <path d="M79.5329 34.56C77.4329 34.56 75.7969 33.606 75.0489 32.1L76.8769 31.002C77.3429 32.046 78.3989 32.64 79.6529 32.64C80.7689 32.64 81.5169 32.172 81.5169 31.416C81.5169 30.804 81.0149 30.408 79.9889 30.138L78.5169 29.766C76.2609 29.208 75.3509 28.038 75.3509 26.478C75.3509 24.594 76.9689 23.82 79.0689 23.82C80.5589 23.82 82.0489 24.36 82.8689 25.722L81.0589 26.766C80.6469 25.92 79.6889 25.542 78.9769 25.542C77.9689 25.542 77.6269 26.046 77.6269 26.568C77.6269 27.09 77.9689 27.45 78.9049 27.684L80.3769 28.044C82.7409 28.602 83.7929 29.838 83.7929 31.47C83.7929 33.624 81.9829 34.56 79.5329 34.56Z" fill="#2D3748"/>
  <path d="M95.8064 34.38H93.6524L91.4264 28.164H88.0304V34.38H85.7504V24H91.5904C94.3064 24 95.8144 25.794 95.8144 28.092C95.8144 30.3 94.3964 31.068 93.9844 31.248L95.8064 34.38ZM91.3064 25.776H88.0304V26.532H91.3064C92.2704 26.532 93.4944 26.64 93.4944 28.092C93.4944 29.544 92.2704 25.776 91.3064 25.776ZM88.0304 30.102H91.3064C92.2704 30.102 93.4944 29.814 93.4944 28.092C93.4944 26.37 92.2704 26.532 91.3064 26.532H88.0304V30.102Z" fill="#2D3748"/>
  <path d="M107.115 34.38L106.467 32.568H100.875L100.263 34.38H97.9834L101.991 24H105.351L109.395 34.38H107.115ZM103.671 26.334L101.559 30.75H105.783L103.671 26.334Z" fill="#2D3748"/>
  <path d="M121.506 34.38H119.352L117.126 28.164H113.73V34.38H111.45V24H117.29C120.006 24 121.514 25.794 121.514 28.092C121.514 30.3 120.096 31.068 119.684 31.248L121.506 34.38ZM117.006 25.776H113.73V26.532H117.006C117.97 26.532 119.194 26.64 119.194 28.092C119.194 29.544 117.97 25.776 117.006 25.776ZM113.73 30.102H117.006C117.97 30.102 119.194 29.814 119.194 28.092C119.194 26.37 117.97 26.532 117.006 26.532H113.73V30.102Z" fill="#2D3748"/>
  <path d="M130.071 34.56C126.639 34.56 123.995 32.064 123.995 29.19C123.995 26.334 126.639 23.82 130.071 23.82C133.287 23.82 135.597 26.154 135.725 29.064H133.553C133.389 27.162 131.935 25.74 130.071 25.74C127.725 25.74 126.271 27.342 126.271 29.19C126.271 31.038 127.725 32.64 130.071 32.64C131.899 32.64 133.287 31.272 133.553 29.424H135.725C135.495 32.316 133.269 34.56 130.071 34.56Z" fill="#2D3748"/>
  <path d="M140.402 34.38H138.122V24H140.402V28.47H145.484V24H147.764V34.38H145.484V30.246H140.402V34.38Z" fill="#2D3748"/>
  <path d="M150.401 34.38V24H158.421V25.776H152.681V28.128H158.025V29.904H152.681V32.604H158.421V34.38H150.401Z" fill="#2D3748"/>
  <path d="M165.022 34.38H162.742V24H168.582C171.114 24 172.75 25.542 172.75 27.684C172.75 29.904 171.114 31.428 168.582 31.428H165.022V34.38ZM168.402 29.652C169.734 29.652 170.47 28.884 170.47 27.684C170.47 26.496 169.734 25.776 168.402 25.776H165.022V29.652H168.402Z" fill="#2D3748"/>
  <path d="M180.991 34.38H173.887V24H176.167V32.604H180.991V34.38Z" fill="#2D3748"/>
  <path d="M88.0304 26.532H91.3064V25.776H88.0304V26.532Z" fill="#2D3748"/>
  <path d="M88.0304 30.102H91.3064V26.532H88.0304V30.102Z" fill="#2D3748"/>
  <path d="M113.73 26.532H117.006V25.776H113.73V26.532Z" fill="#2D3748"/>
  <path d="M113.73 30.102H117.006V26.532H113.73V30.102Z" fill="#2D3748"/>
</svg>
