
<svg width="180" height="48" viewBox="0 0 180 48" fill="none" xmlns="http://www.w3.org/2000/svg">
  <!-- Shield shape with gradient -->
  <path d="M24 4C27.6819 4 31.3638 4.54086 35.0457 5.62259C38.7276 6.70432 42 8.32432 42 10.4865V26.3784C42 28.0259 40.8107 29.9572 39.6923 30.9572L24 44L8.30769 30.9572C7.18925 29.9572 6 28.0259 6 26.3784V10.4865C6 8.32432 9.27241 6.70432 12.9543 5.62259C16.6362 4.54086 20.3181 4 24 4Z" fill="url(#paint0_linear)"/>
  
  <!-- Fire safety cross symbol -->
  <path d="M24 16L26 16L26 24L32 24L32 26L26 26L26 34L24 34L24 26L18 26L18 24L24 24L24 16Z" fill="white"/>
  
  <!-- Text "SecuGenie" -->
  <path d="M48 24H52.836C55.98 24 58.392 25.884 58.392 29.244C58.392 32.496 55.944 34.38 52.872 34.38H48V24ZM52.656 32.604C54.648 32.604 56.076 31.356 56.076 29.244C56.076 27.072 54.612 25.776 52.656 25.776H50.28V32.604H52.656Z" fill="#2D3748"/>
  <path d="M66.7148 34.56C63.2828 34.56 60.6388 32.064 60.6388 29.19C60.6388 26.334 63.2828 23.82 66.7148 23.82C69.9308 23.82 72.2408 26.154 72.3688 29.064H70.1968C70.0328 27.162 68.5788 25.74 66.7148 25.74C64.3688 25.74 62.9148 27.342 62.9148 29.19C62.9148 31.038 64.3688 32.64 66.7148 32.64C68.5428 32.64 69.9308 31.272 70.1968 29.424H72.3688C72.1388 32.316 69.9128 34.56 66.7148 34.56Z" fill="#2D3748"/>
  <path d="M79.5329 34.56C77.4329 34.56 75.7969 33.606 75.0489 32.1L76.8769 31.002C77.3429 32.046 78.3989 32.64 79.6529 32.64C80.7689 32.64 81.5169 32.172 81.5169 31.416C81.5169 30.804 81.0149 30.408 79.9889 30.138L78.5169 29.766C76.2609 29.208 75.3509 28.038 75.3509 26.478C75.3509 24.594 76.9689 23.82 79.0689 23.82C80.5589 23.82 82.0489 24.36 82.8689 25.722L81.0589 26.766C80.6469 25.92 79.6889 25.542 78.9769 25.542C77.9689 25.542 77.6269 26.046 77.6269 26.568C77.6269 27.09 77.9689 27.45 78.9049 27.684L80.3769 28.044C82.7409 28.602 83.7929 29.838 83.7929 31.47C83.7929 33.624 81.9829 34.56 79.5329 34.56Z" fill="#2D3748"/>
  <path d="M95.8064 34.38H93.6524L91.4264 28.164H88.0304V34.38H85.7504V24H91.5904C94.3064 24 95.8144 25.794 95.8144 28.092C95.8144 30.3 94.3964 31.068 93.9844 31.248L95.8064 34.38ZM91.3064 25.776H88.0304V30.102H91.3064C92.2704 30.102 93.4944 29.814 93.4944 28.092C93.4944 26.37 92.2704 26.532 91.3064 26.532V25.776Z" fill="#2D3748"/>
  <path d="M107.115 34.38L106.467 32.568H100.875L100.263 34.38H97.9834L101.991 24H105.351L109.395 34.38H107.115ZM103.671 26.334L101.559 30.75H105.783L103.671 26.334Z" fill="#2D3748"/>
  <path d="M121.506 34.38H119.352L117.126 28.164H113.73V34.38H111.45V24H117.29C120.006 24 121.514 25.794 121.514 28.092C121.514 30.3 120.096 31.068 119.684 31.248L121.506 34.38ZM117.006 25.776H113.73V30.102H117.006C117.97 30.102 119.194 29.814 119.194 28.092C119.194 26.37 117.97 26.532 117.006 26.532V25.776Z" fill="#2D3748"/>
  <path d="M130.071 34.56C126.639 34.56 123.995 32.064 123.995 29.19C123.995 26.334 126.639 23.82 130.071 23.82C133.287 23.82 135.597 26.154 135.725 29.064H133.553C133.389 27.162 131.935 25.74 130.071 25.74C127.725 25.74 126.271 27.342 126.271 29.19C126.271 31.038 127.725 32.64 130.071 32.64C131.899 32.64 133.287 31.272 133.553 29.424H135.725C135.495 32.316 133.269 34.56 130.071 34.56Z" fill="#2D3748"/>
  <path d="M140.402 34.38H138.122V24H140.402V28.47H145.484V24H147.764V34.38H145.484V30.246H140.402V34.38Z" fill="#2D3748"/>
  <path d="M150.401 34.38V24H158.421V25.776H152.681V28.128H158.025V29.904H152.681V32.604H158.421V34.38H150.401Z" fill="#2D3748"/>
  <path d="M165.022 34.38H162.742V24H168.582C171.114 24 172.75 25.542 172.75 27.684C172.75 29.904 171.114 31.428 168.582 31.428H165.022V34.38ZM168.402 29.652C169.734 29.652 170.47 28.884 170.47 27.684C170.47 26.496 169.734 25.776 168.402 25.776H165.022V29.652H168.402Z" fill="#2D3748"/>
  <path d="M180.991 34.38H173.887V24H176.167V32.604H180.991V34.38Z" fill="#2D3748"/>
  
  <!-- Gradient definition -->
  <defs>
    <linearGradient id="paint0_linear" x1="24" y1="4" x2="24" y2="44" gradientUnits="userSpaceOnUse">
      <stop offset="0" stop-color="#3182CE"/>
      <stop offset="1" stop-color="#2C5282"/>
    </linearGradient>
  </defs>
</svg>
